<svg xmlns="http://www.w3.org/2000/svg" viewBox="0 0 400.76 378.68"><defs><style>.cls-1{isolation:isolate;}.cls-2,.cls-3{fill:#06f;}.cls-3{mix-blend-mode:overlay;}</style></defs><title>Asset 1</title><g class="cls-1"><g id="Layer_2" data-name="Layer 2"><g id="Layer_1-2" data-name="Layer 1"><path class="cls-2" d="M400.53,329.31c-5.72,67.54-107,62-107-5.81V218a92.69,92.69,0,1,0-185.38,0V324.48c0,68.08-101.62,74.08-107.88,6.29a56,56,0,0,1,7.36-33.9l56.26-97.45,41.57-72a108.6,108.6,0,0,1,78.64-53.8,114.36,114.36,0,0,1,12.36-1.2h.33c1.31,0,2.62-.07,3.93-.07h.12c1.36,0,2.74,0,4.1.07h.14a110.23,110.23,0,0,1,91.15,55l41.58,72L393,295A57.37,57.37,0,0,1,400.53,329.31Z"/><path class="cls-3" d="M338.18,209.71a136.9,136.9,0,0,1-44.66,101.34V218a92.69,92.69,0,1,0-185.38,0V311A137,137,0,0,1,63.51,209.71c0-3.47.12-6.89.37-10.29l41.57-72a108.6,108.6,0,0,1,78.64-53.8,114.36,114.36,0,0,1,12.36-1.2h.33c1.31,0,2.62-.07,3.93-.07h.12c1.36,0,2.74,0,4.1.07h.14a110.23,110.23,0,0,1,91.15,55l41.58,72C338.06,202.84,338.18,206.27,338.18,209.71Z"/><path class="cls-2" d="M265.55,72.13a87.47,87.47,0,0,0-64.84-28.67,85.81,85.81,0,0,0-19,2.09,87.35,87.35,0,0,0-45.88,26.58L172,15.73A34.16,34.16,0,0,1,221.3,6.87a33.71,33.71,0,0,1,8.15,8.86Z"/><path class="cls-2" d="M257.75,218V321.32a57.35,57.35,0,1,1-114.7,0V218a57.34,57.34,0,0,1,57.34-57.36c1.36,0,2.69.05,4,.17A57.32,57.32,0,0,1,257.75,218Z"/><path class="cls-2" d="M293.53,164.82V218a92.69,92.69,0,1,0-185.38,0V164.82a92.69,92.69,0,1,1,185.38,0Z"/><path class="cls-3" d="M257.75,218V321.32a57.19,57.19,0,0,1-5.23,23.93,104.33,104.33,0,0,1-48.13-184.48A57.32,57.32,0,0,1,257.75,218Z"/><path class="cls-3" d="M265.55,72.13a87.47,87.47,0,0,0-64.84-28.67,85.81,85.81,0,0,0-19,2.09A60.29,60.29,0,0,1,221.3,6.87a33.71,33.71,0,0,1,8.15,8.86Z"/></g></g></g></svg>